<svg xmlns="http://www.w3.org/2000/svg" viewBox="0 0 244.23 273.04"><defs><style>.cls-1{fill:#77ccd2;}.cls-2{fill:#3b888e;}.cls-3,.cls-6{fill:none;stroke:#000;stroke-miterlimit:10;}.cls-3{stroke-width:0.25px;}.cls-4{fill:#387379;}.cls-5{fill:#d7fbf5;}.cls-6{stroke-width:0.5px;}</style></defs><title>Asset 2</title><g id="Layer_2" data-name="Layer 2"><g id="Layer_1-2" data-name="Layer 1"><rect class="cls-1" x="-0.72" y="51.16" width="223.75" height="154.02" transform="translate(-41.71 201.77) rotate(-74.77)"/><rect class="cls-2" x="76.45" y="146.21" width="223.75" height="5.93" transform="translate(-5.07 291.71) rotate(-74.77)"/><path class="cls-3" d="M220.58,42h0l.08-.29A1.37,1.37,0,0,0,220.58,42Z"/><path class="cls-3" d="M243.8,48l-.07.29h0C243.75,48.21,243.78,48.12,243.8,48Z"/><path class="cls-4" d="M180.55,251.48l-4.23,15.57L0,219.06,57.2,8.88l6.16,1.68L7.47,215.9l152.17,41.42a2.66,2.66,0,0,0,2.5-.64,2.5,2.5,0,0,0,.5-.66,10.6,10.6,0,0,1,.64-1.2l.24-.39a.24.24,0,0,0,.06-.08c.09-.12.18-.26.27-.37s.2-.28.31-.41.21-.26.33-.38a12.1,12.1,0,0,1,1.6-1.52c.15-.11.31-.24.46-.34l.2-.14.43-.28.47-.27c.28-.16.57-.3.86-.43l.46-.2c.17-.07.32-.13.48-.18a11.11,11.11,0,0,1,3-.65l.59,0h1.07a8,8,0,0,1,1,.1,3.62,3.62,0,0,1,.46.06l.48.1.59.14A11.83,11.83,0,0,1,180.55,251.48Z"/><path class="cls-1" d="M243.72,48.31h0L185,264.21a11.92,11.92,0,0,0-2.52-11,11.64,11.64,0,0,0-1.89-1.75,11.83,11.83,0,0,0-4-1.93l-.59-.14-.48-.1-.46-.06a8,8,0,0,0-1-.1H173l-.59,0a11.11,11.11,0,0,0-3,.65,4.68,4.68,0,0,0-.48.18l-.46.2a7.66,7.66,0,0,0-.86.43l-.47.27-.43.28-.2.14c-.15.1-.31.23-.46.34a12.1,12.1,0,0,0-1.6,1.52c-.12.12-.22.26-.33.38l-.31.41c-.09.11-.18.25-.27.37a.24.24,0,0,1-.06.08l-.24.39a10.6,10.6,0,0,0-.64,1.2,2.5,2.5,0,0,1-.5.66L220.57,42h0c0-.1,0-.19.07-.29A12,12,0,1,1,243.81,48Z"/><path class="cls-5" d="M185,264.21a12,12,0,0,1-7.67,8.2,12.07,12.07,0,0,1-2,.5,11.85,11.85,0,0,1-4.83-.28L.82,226.45l1.82-6.67,173.78,47.29,4.23-15.56a11,11,0,0,1,1.86,1.74A12,12,0,0,1,185,264.21Z"/><line class="cls-6" x1="112.21" y1="40.14" x2="155.3" y2="51.87"/><line class="cls-6" x1="68.5" y1="68.86" x2="177.99" y2="98.66"/><line class="cls-6" x1="64.2" y1="84.69" x2="173.68" y2="114.49"/><line class="cls-6" x1="59.89" y1="100.52" x2="169.37" y2="130.32"/><line class="cls-6" x1="55.58" y1="116.35" x2="165.06" y2="146.15"/><line class="cls-6" x1="51.27" y1="132.18" x2="160.76" y2="161.98"/><line class="cls-6" x1="46.96" y1="148.01" x2="156.45" y2="177.81"/><line class="cls-6" x1="42.65" y1="163.84" x2="152.14" y2="193.64"/><line class="cls-6" x1="38.35" y1="179.67" x2="147.83" y2="209.47"/><line class="cls-6" x1="34.04" y1="195.5" x2="143.52" y2="225.3"/></g></g></svg>