<svg xmlns="http://www.w3.org/2000/svg" viewBox="0 0 61.52 631.6"><defs><style>.cls-1{fill:#77ccd2;}.cls-2{fill:#061e38;}.cls-3{fill:#bfebec;}.cls-4{fill:#d7fbf5;}</style></defs><title>Asset 3</title><g id="Layer_2" data-name="Layer 2"><g id="Layer_1-2" data-name="Layer 1"><path class="cls-1" d="M0,104.82V545.7H61.52V104.82ZM20.5,526.56H14.43V139H20.5Zm26.77,0H41.2V139h6.07Z"/><rect class="cls-2" y="545.7" width="61.52" height="34.26"/><path class="cls-3" d="M61.52,580v37.5c0,7.81-4.2,14.14-9.38,14.14H9.38C4.2,631.6,0,625.27,0,617.46V580Z"/><rect class="cls-4" x="14.43" y="138.99" width="6.07" height="387.57"/><rect class="cls-4" x="41.2" y="138.99" width="6.07" height="387.57"/><polygon class="cls-2" points="44.4 46.49 17.12 46.49 30.76 0 44.4 46.49"/><polygon class="cls-3" points="61.52 104.82 0 104.82 17.12 46.49 44.4 46.49 61.52 104.82"/></g></g></svg>