<svg xmlns="http://www.w3.org/2000/svg" viewBox="0 0 128.87 22.78"><defs><style>.cls-1{fill:#50bac2;}.cls-2{fill:#fff;}</style></defs><title>Asset 4</title><g id="Layer_2" data-name="Layer 2"><g id="Layer_1-2" data-name="Layer 1"><rect class="cls-1" x="106.09" width="22.78" height="22.78"/><polygon class="cls-2" points="117.48 3.37 119.47 9.5 125.91 9.5 120.7 13.29 122.69 19.41 117.48 15.63 112.27 19.41 114.26 13.29 109.05 9.5 115.49 9.5 117.48 3.37"/><rect class="cls-1" x="79.57" width="22.78" height="22.78"/><polygon class="cls-2" points="90.96 3.37 92.95 9.5 99.39 9.5 94.18 13.29 96.17 19.41 90.96 15.63 85.75 19.41 87.74 13.29 82.53 9.5 88.97 9.5 90.96 3.37"/><rect class="cls-1" x="53.04" width="22.78" height="22.78"/><polygon class="cls-2" points="64.44 3.37 66.43 9.5 72.87 9.5 67.66 13.29 69.65 19.41 64.44 15.63 59.23 19.41 61.22 13.29 56.01 9.5 62.45 9.5 64.44 3.37"/><rect class="cls-1" x="26.52" width="22.78" height="22.78"/><polygon class="cls-2" points="37.91 3.37 39.91 9.5 46.35 9.5 41.13 13.29 43.13 19.41 37.91 15.63 32.7 19.41 34.69 13.29 29.48 9.5 35.92 9.5 37.91 3.37"/><rect class="cls-1" width="22.78" height="22.78"/><polygon class="cls-2" points="11.39 3.37 13.38 9.5 19.82 9.5 14.61 13.29 16.6 19.41 11.39 15.63 6.18 19.41 8.17 13.29 2.96 9.5 9.4 9.5 11.39 3.37"/></g></g></svg>