<?xml version="1.0" encoding="iso-8859-1"?>
<!-- Uploaded to: SVG Repo, www.svgrepo.com, Generator: SVG Repo Mixer Tools -->
<svg height="800px" width="800px" version="1.1" id="Capa_1" xmlns="http://www.w3.org/2000/svg" xmlns:xlink="http://www.w3.org/1999/xlink" 
	 viewBox="0 0 90.774 90.774" xml:space="preserve">
<g>
	<path style="fill:#010002;" d="M65.128,61.381H25.646v-3.579h39.478v3.579H65.128z M64.756,68.871H25.274v3.579h39.482
		C64.756,72.45,64.756,68.871,64.756,68.871z M28.509,31.601H26.77l5.683-16.062h1.943h1.943l5.683,16.062h-1.782h-1.779
		l-1.088-3.267h-6.091l-1.052,3.267C30.231,31.601,28.509,31.601,28.509,31.601z M32.213,25.571h4.262l-2.133-6.453L32.213,25.571z
		 M65.497,15.643H44.471v3.579h21.026V15.643z M65.497,26.118H44.471v3.579h21.026V26.118z M65.497,36.59H26.018v3.579h39.478V36.59
		z M65.497,47.065H26.018v3.579h39.478V47.065z M76.308,0v90.774H14.466V0H76.308z M70.94,8.929H19.834v69.19H70.94V8.929z
		 M48.372,88.09v-2.684V82.12h-5.973v3.285v2.684H48.372z"/>
</g>
</svg>