<?xml version="1.0" encoding="utf-8"?><!-- Uploaded to: SVG Repo, www.svgrepo.com, Generator: SVG Repo Mixer Tools -->
<svg width="800px" height="800px" viewBox="0 0 24 24" fill="none" xmlns="http://www.w3.org/2000/svg">
<path fill-rule="evenodd" clip-rule="evenodd" d="M2.98423 12.9162C2.97585 12.8329 2.96625 12.7272 2.95688 12.6018C2.93272 12.2782 2.90995 11.8208 2.9141 11.2737C2.92233 10.1862 3.03699 8.71096 3.47849 7.21665C3.92001 5.72226 4.70463 4.15592 6.08896 2.96159C7.48926 1.75349 9.41802 1 12 1C14.582 1 16.5107 1.75349 17.911 2.96159C19.2954 4.15592 20.08 5.72226 20.5215 7.21665C20.963 8.71096 21.0777 10.1862 21.0859 11.2737C21.0901 11.8208 21.0673 12.2782 21.0431 12.6018C21.0338 12.7272 21.0242 12.8329 21.0158 12.9162L21.0208 12.9189C22.0321 13.466 23 14.435 23 16V19C23 20.565 22.0321 21.534 21.0208 22.0811C20.0373 22.6131 18.8886 22.8291 18.1158 22.9223C16.9041 23.0682 16 22.0814 16 21V14C16 12.9186 16.9041 11.9318 18.1158 12.0777C18.3918 12.111 18.7158 12.1599 19.0631 12.2334C19.0777 11.9785 19.0888 11.6575 19.086 11.2888C19.0786 10.3138 18.9745 9.03904 18.6035 7.78334C18.2325 6.52774 17.6109 5.34408 16.6046 4.47591C15.6143 3.62151 14.168 3 12 3C9.83199 3 8.38575 3.62151 7.39543 4.47591C6.38913 5.34408 5.7675 6.52774 5.39652 7.78334C5.02552 9.03904 4.92143 10.3138 4.91404 11.2888C4.91125 11.6575 4.92229 11.9785 4.93689 12.2334C5.28418 12.1599 5.60817 12.111 5.88422 12.0777C7.09594 11.9318 8 12.9186 8 14V21C8 22.0814 7.09594 23.0682 5.88422 22.9223C5.11136 22.8291 3.96273 22.6131 2.97917 22.0811C1.96791 21.534 1 20.565 1 19V16C1 14.435 1.96791 13.466 2.97917 12.9189L2.98423 12.9162ZM18 20.9209C18.6625 20.8323 19.4542 20.6546 20.0692 20.3219C20.6953 19.9833 21 19.5754 21 19V16C21 15.4246 20.6953 15.0167 20.0692 14.6781C19.4542 14.3454 18.6625 14.1677 18 14.0791V20.9209ZM6 14.0791C5.33746 14.1677 4.54579 14.3454 3.93076 14.6781C3.30474 15.0167 3 15.4246 3 16L3 19C3 19.5754 3.30474 19.9833 3.93076 20.3219C4.54579 20.6546 5.33746 20.8323 6 20.9209V14.0791Z" fill="#0F0F0F"/>
</svg>