<?xml version="1.0" encoding="utf-8"?><!-- Uploaded to: SVG Repo, www.svgrepo.com, Generator: SVG Repo Mixer Tools -->
<svg width="800px" height="800px" viewBox="0 -0.5 25 25" fill="none" xmlns="http://www.w3.org/2000/svg">
<path fill-rule="evenodd" clip-rule="evenodd" d="M8.24945 17.3586C7.59135 17.472 6.91604 17.3005 6.39185 16.8868C5.86766 16.473 5.54396 15.856 5.50145 15.1896V8.02759C5.47083 7.27605 5.92795 6.59038 6.63345 6.32959C8.7056 5.56915 11.032 6.15154 12.5014 7.79859V18.0196C11.5164 17.1916 9.81445 17.1416 8.24945 17.3586Z" stroke="#000000" stroke-width="1.5" stroke-linecap="round" stroke-linejoin="round"/>
<path fill-rule="evenodd" clip-rule="evenodd" d="M16.7534 17.3586C17.4115 17.472 18.0869 17.3005 18.611 16.8868C19.1352 16.473 19.4589 15.856 19.5014 15.1896V8.02759C19.5321 7.27605 19.075 6.59038 18.3694 6.32959C16.2973 5.56915 13.9709 6.15154 12.5014 7.79859V18.0196C13.4864 17.1916 15.1884 17.1416 16.7534 17.3586Z" stroke="#000000" stroke-width="1.5" stroke-linecap="round" stroke-linejoin="round"/>
<path d="M10.0014 11.7695C10.4157 11.7695 10.7514 11.4337 10.7514 11.0195C10.7514 10.6053 10.4157 10.2695 10.0014 10.2695V11.7695ZM8.00145 10.2695C7.58724 10.2695 7.25145 10.6053 7.25145 11.0195C7.25145 11.4337 7.58724 11.7695 8.00145 11.7695V10.2695ZM10.0014 13.7695C10.4157 13.7695 10.7514 13.4337 10.7514 13.0195C10.7514 12.6053 10.4157 12.2695 10.0014 12.2695V13.7695ZM8.00145 12.2695C7.58724 12.2695 7.25145 12.6053 7.25145 13.0195C7.25145 13.4337 7.58724 13.7695 8.00145 13.7695V12.2695ZM17.0014 11.7695C17.4157 11.7695 17.7514 11.4337 17.7514 11.0195C17.7514 10.6053 17.4157 10.2695 17.0014 10.2695V11.7695ZM15.0014 10.2695C14.5872 10.2695 14.2514 10.6053 14.2514 11.0195C14.2514 11.4337 14.5872 11.7695 15.0014 11.7695V10.2695ZM17.0014 13.7695C17.4157 13.7695 17.7514 13.4337 17.7514 13.0195C17.7514 12.6053 17.4157 12.2695 17.0014 12.2695V13.7695ZM15.0014 12.2695C14.5872 12.2695 14.2514 12.6053 14.2514 13.0195C14.2514 13.4337 14.5872 13.7695 15.0014 13.7695V12.2695ZM10.0014 10.2695H8.00145V11.7695H10.0014V10.2695ZM10.0014 12.2695H8.00145V13.7695H10.0014V12.2695ZM17.0014 10.2695H15.0014V11.7695H17.0014V10.2695ZM17.0014 12.2695H15.0014V13.7695H17.0014V12.2695Z" fill="#000000"/>
</svg>